<svg xmlns="http://www.w3.org/2000/svg" viewBox="0 0 383.0 100" role="img" aria-label="OrbiJob"><path d="M72.63 27.37A32 32 0 0 1 72.63 72.63" stroke="#000000" stroke-width="7.5" fill="none"/><path d="M72.63 72.63A32 32 0 0 1 27.37 72.63" stroke="#000000" stroke-width="7.5" fill="none"/><path d="M27.37 72.63A32 32 0 0 1 27.37 27.37" stroke="#000000" stroke-width="7.5" fill="none"/><path d="M27.37 27.37A32 32 0 0 1 72.63 27.37" stroke="#000000" stroke-width="7.5" fill="none"/><circle cx="72.63" cy="72.63" r="9.5" fill="#000000"/><circle cx="27.37" cy="72.63" r="9.5" fill="#000000"/><circle cx="27.37" cy="27.37" r="9.5" fill="#000000"/><circle cx="72.63" cy="27.37" r="19" fill="none" stroke="#000000" stroke-width="2.6" opacity=".55"/><circle cx="72.63" cy="27.37" r="13" fill="#000000"/><g transform="translate(116 0)"><path d="M23.162 1.1099999999999999Q17.131 1.1099999999999999 12.58 -1.591Q8.029 -4.292 5.4945 -9.0465Q2.96 -13.801 2.96 -19.98Q2.96 -26.232999999999997 5.549999999999999 -30.987499999999997Q8.139999999999999 -35.742 12.690999999999999 -38.406Q17.242 -41.07 23.162 -41.07Q29.192999999999998 -41.07 33.7625 -38.369Q38.332 -35.668 40.885 -30.9135Q43.437999999999995 -26.159 43.437999999999995 -19.98Q43.437999999999995 -13.764 40.866499999999995 -9.0095Q38.294999999999995 -4.255 33.7255 -1.5725Q29.156 1.1099999999999999 23.162 1.1099999999999999ZM23.162 -8.288Q28.009 -8.288 30.3955 -11.5625Q32.782 -14.837 32.782 -19.98Q32.782 -25.308 30.3585 -28.49Q27.935 -31.671999999999997 23.162 -31.671999999999997Q19.869 -31.671999999999997 17.759999999999998 -30.192Q15.651 -28.712 14.6335 -26.085Q13.616 -23.458 13.616 -19.98Q13.616 -14.614999999999998 16.039499999999997 -11.4515Q18.462999999999997 -8.288 23.162 -8.288Z" fill="#000000" transform="translate(0 69.98)"/><path d="M51.778 0.0V-39.96H60.658V-30.192L59.696 -31.45Q60.473 -33.522 61.768 -35.224Q63.063 -36.925999999999995 64.95 -38.036Q66.393 -38.924 68.095 -39.4235Q69.797 -39.922999999999995 71.61 -40.052499999999995Q73.423 -40.181999999999995 75.23599999999999 -39.96V-30.561999999999998Q73.571 -31.08 71.3695 -30.9135Q69.168 -30.747 67.392 -29.895999999999997Q65.616 -29.081999999999997 64.395 -27.731499999999997Q63.174 -26.381 62.545 -24.549500000000002Q61.916 -22.718 61.916 -20.424V0.0Z" fill="#000000" transform="translate(0 69.98)"/><path d="M102.076 1.1099999999999999Q96.119 1.1099999999999999 92.12299999999999 -1.6649999999999998Q88.127 -4.4399999999999995 86.1105 -9.213Q84.094 -13.985999999999999 84.094 -19.98Q84.094 -25.974 86.092 -30.747Q88.09 -35.519999999999996 91.975 -38.295Q95.86 -41.07 101.55799999999999 -41.07Q107.293 -41.07 111.548 -38.332Q115.803 -35.594 118.1525 -30.8395Q120.50200000000001 -26.084999999999997 120.50200000000001 -19.98Q120.50200000000001 -13.985999999999999 118.18950000000001 -9.213Q115.87700000000001 -4.4399999999999995 111.733 -1.6649999999999998Q107.589 1.1099999999999999 102.076 1.1099999999999999ZM82.392 0.0V-53.279999999999994H92.53V-27.38H91.272V0.0ZM100.44800000000001 -7.843999999999999Q103.70400000000001 -7.843999999999999 105.77600000000001 -9.472Q107.848 -11.1 108.84700000000001 -13.8565Q109.846 -16.613 109.846 -19.98Q109.846 -23.31 108.81 -26.066499999999998Q107.774 -28.822999999999997 105.6095 -30.469499999999996Q103.445 -32.116 100.078 -32.116Q96.93299999999999 -32.116 94.9905 -30.598999999999997Q93.048 -29.081999999999997 92.16 -26.343999999999998Q91.272 -23.605999999999998 91.272 -19.98Q91.272 -16.354 92.16 -13.616Q93.048 -10.878 95.06450000000001 -9.361Q97.081 -7.843999999999999 100.44800000000001 -7.843999999999999Z" fill="#000000" transform="translate(0 69.98)"/><path d="M129.582 -45.51V-54.39H139.64600000000002V-45.51ZM129.582 0.0V-39.96H139.64600000000002V0.0Z" fill="#000000" transform="translate(0 69.98)"/><path d="M145.026 17.759999999999998V8.362H146.80200000000002Q150.24300000000002 8.362 151.51950000000002 6.808Q152.79600000000002 5.254 152.79600000000002 2.368V-39.96H162.86V7.252Q162.86 12.024999999999999 159.88150000000002 14.892499999999998Q156.90300000000002 17.759999999999998 151.83400000000003 17.759999999999998Z" fill="#000000" transform="translate(0 69.98)"/><path d="M152.79600000000002 -45.51V-54.39H162.86V-45.51Z" fill="#000000" transform="translate(0 69.98)"/><path d="M191.40200000000002 1.1099999999999999Q185.371 1.1099999999999999 180.82 -1.591Q176.269 -4.292 173.73450000000003 -9.0465Q171.20000000000002 -13.801 171.20000000000002 -19.98Q171.20000000000002 -26.232999999999997 173.79000000000002 -30.987499999999997Q176.38 -35.742 180.93099999999998 -38.406Q185.482 -41.07 191.40200000000002 -41.07Q197.433 -41.07 202.0025 -38.369Q206.572 -35.668 209.125 -30.9135Q211.678 -26.159 211.678 -19.98Q211.678 -13.764 209.10649999999998 -9.0095Q206.535 -4.255 201.96550000000002 -1.5725Q197.39600000000002 1.1099999999999999 191.40200000000002 1.1099999999999999ZM191.40200000000002 -8.288Q196.24900000000002 -8.288 198.6355 -11.5625Q201.022 -14.837 201.022 -19.98Q201.022 -25.308 198.5985 -28.49Q196.175 -31.671999999999997 191.40200000000002 -31.671999999999997Q188.109 -31.671999999999997 186.0 -30.192Q183.89100000000002 -28.712 182.8735 -26.085Q181.856 -23.458 181.856 -19.98Q181.856 -14.614999999999998 184.27949999999998 -11.4515Q186.703 -8.288 191.40200000000002 -8.288Z" fill="#000000" transform="translate(0 69.98)"/><path d="M239.62800000000001 1.1099999999999999Q233.67100000000002 1.1099999999999999 229.675 -1.6649999999999998Q225.67900000000003 -4.4399999999999995 223.66250000000002 -9.213Q221.64600000000002 -13.985999999999999 221.64600000000002 -19.98Q221.64600000000002 -25.974 223.644 -30.747Q225.64200000000002 -35.519999999999996 229.52700000000004 -38.295Q233.41200000000003 -41.07 239.11 -41.07Q244.84500000000003 -41.07 249.10000000000002 -38.332Q253.35500000000002 -35.594 255.70450000000002 -30.8395Q258.05400000000003 -26.084999999999997 258.05400000000003 -19.98Q258.05400000000003 -13.985999999999999 255.74150000000003 -9.213Q253.42900000000003 -4.4399999999999995 249.28500000000003 -1.6649999999999998Q245.14100000000002 1.1099999999999999 239.62800000000001 1.1099999999999999ZM219.94400000000002 0.0V-53.279999999999994H230.08200000000002V-27.38H228.824V0.0ZM238.00000000000003 -7.843999999999999Q241.25600000000003 -7.843999999999999 243.32800000000003 -9.472Q245.40000000000003 -11.1 246.39900000000003 -13.8565Q247.39800000000002 -16.613 247.39800000000002 -19.98Q247.39800000000002 -23.31 246.36200000000002 -26.066499999999998Q245.32600000000002 -28.822999999999997 243.16150000000002 -30.469499999999996Q240.997 -32.116 237.63000000000002 -32.116Q234.485 -32.116 232.54250000000002 -30.598999999999997Q230.60000000000002 -29.081999999999997 229.71200000000002 -26.343999999999998Q228.824 -23.605999999999998 228.824 -19.98Q228.824 -16.354 229.71200000000002 -13.616Q230.60000000000002 -10.878 232.61650000000003 -9.361Q234.633 -7.843999999999999 238.00000000000003 -7.843999999999999Z" fill="#000000" transform="translate(0 69.98)"/></g></svg>
